# xmcd
#
# Track frame offsets:
#	182
#	23572
#	35527
#	60220
#	76422
#	98962
#	109840
#	136307
#	159535
#	171622
#	194087
#	215110
#	234160
#	255467
#
# Disc length: 3547 seconds
#
# Revision: 4
# Processed by: cddbd v1.5.2PL0 Copyright (c) Steve Scherf et al.
# Submitted via: audiograbber 1.83.01
#
DISCID=bd0dd90e
DTITLE=Pappo's Blues - Blues local
DYEAR=1992
DGENRE=Blues
TTITLE0=Longchamps Boogie
TTITLE1=Mi Vieja
TTITLE2=Buscando El Tesoro De Borneo
TTITLE3=Saco Italiano
TTITLE4=La Almeja
TTITLE5=Blues Local
TTITLE6=Pequeña Ala
TTITLE7=Una Casa Con 10 Pinos
TTITLE8=El Tropezon
TTITLE9=El Hombre Oculto
TTITLE10=Dr. Tazo
TTITLE11=Blues Del Perro
TTITLE12=Dos Bajistas
TTITLE13=Nacido Bajo Un Signo Malo
EXTD=
EXTT0=
EXTT1=
EXTT2=
EXTT3=
EXTT4=
EXTT5=
EXTT6=
EXTT7=
EXTT8=
EXTT9=
EXTT10=
EXTT11=
EXTT12=
EXTT13=
PLAYORDER=
